<svg width="145" height="22" viewBox="0 0 145 22" fill="none" xmlns="http://www.w3.org/2000/svg">
<path d="M24.0703 16.0337L24.0947 15.2036C24.111 14.6828 24.1598 14.1131 24.2412 13.4946L24.4365 12.0542C24.4772 11.7124 24.5179 11.4032 24.5586 11.1265C23.7855 11.9728 23.1629 12.632 22.6909 13.104L21.2871 14.4712C18.1458 17.409 16.2741 18.8779 15.6719 18.8779C14.7848 18.8779 13.853 18.6867 12.8765 18.3042C12.3475 18.0926 12.0464 17.8729 11.9731 17.645C11.8592 17.3602 11.8022 16.9736 11.8022 16.4854C11.8022 15.9889 11.8185 15.5332 11.8511 15.1182C11.8836 14.7031 11.9243 14.2922 11.9731 13.8853C12.022 13.4702 12.0708 13.0755 12.1196 12.7012C12.1766 12.3187 12.2214 11.985 12.2539 11.7002C12.3353 11.0573 12.3516 10.7358 12.3027 10.7358L7.76172 16.3145C5.62142 18.8291 4.40479 20.2207 4.11182 20.4893C3.48519 21.0589 2.79346 21.3438 2.03662 21.3438C1.66227 21.3438 1.35303 21.2502 1.10889 21.063C0.864746 20.8758 0.742676 20.6439 0.742676 20.3672C0.742676 19.8138 0.974609 19.236 1.43848 18.6338L12.2783 4.85205L13.5479 3.32617C15.0615 1.54395 16.0544 0.652832 16.5264 0.652832C17.1855 0.652832 17.8122 0.819661 18.4062 1.15332C18.9352 1.44629 19.2363 1.73112 19.3096 2.00781C19.3421 2.11361 19.2729 2.60596 19.1021 3.48486L18.6748 5.79199C18.1947 8.36361 17.9546 10.0238 17.9546 10.7725C17.9546 11.513 18.04 11.8833 18.2109 11.8833C18.7643 11.8833 19.8304 10.9759 21.4092 9.16113L25.3643 4.4248C26.235 3.42383 26.8128 2.85417 27.0977 2.71582C27.179 2.67513 27.297 2.65479 27.4517 2.65479C27.6063 2.65479 27.7772 2.67513 27.9644 2.71582C28.1597 2.75651 28.355 2.80941 28.5503 2.87451C28.7537 2.93962 28.9491 3.01693 29.1362 3.10645C29.3234 3.19596 29.4902 3.28955 29.6367 3.38721C29.9541 3.5988 30.1087 3.77376 30.1006 3.91211C30.1006 4.04232 30.068 4.33122 30.0029 4.77881C29.9378 5.21826 29.8564 5.75537 29.7588 6.39014C29.0833 10.5975 28.7293 13.0389 28.6968 13.7144C28.6724 14.3898 28.7415 14.813 28.9043 14.9839C29.0752 15.1548 29.3234 15.2402 29.6489 15.2402C30.243 15.2402 31.1056 14.8862 32.2368 14.1782C33.0018 13.6981 33.6325 13.458 34.1289 13.458C34.6335 13.458 34.8857 13.6981 34.8857 14.1782C34.8857 14.6746 34.6172 15.2769 34.0801 15.9849C33.307 17.0103 32.1514 17.938 30.6133 18.7681C29.3193 19.4598 28.0905 19.8057 26.9268 19.8057C25.0225 19.8057 24.0703 18.5483 24.0703 16.0337ZM52.1587 10.0278C52.5493 10.0278 52.7446 10.2476 52.7446 10.687C52.7446 10.98 52.6429 11.3503 52.4395 11.7979C52.2441 12.2373 51.9593 12.6523 51.585 13.043C51.2106 13.4255 50.7793 13.8242 50.291 14.2393C49.8109 14.6543 49.2453 15.0897 48.5942 15.5454C47.9513 16.0011 47.2393 16.4528 46.458 16.9004C45.6768 17.348 44.8467 17.7508 43.9678 18.1089C42.0228 18.9064 40.1388 19.3052 38.3159 19.3052C36.9243 19.3052 35.7077 18.943 34.666 18.2188C33.5755 17.4619 33.0303 16.5423 33.0303 15.46C33.0303 13.7591 33.9458 12.1437 35.7769 10.6138C37.3556 9.29541 39.2152 8.27409 41.3555 7.5498C42.6576 7.11035 43.7603 6.89062 44.6636 6.89062C45.396 6.89062 46.0145 7.06966 46.519 7.42773C47.0562 7.81836 47.3247 8.34326 47.3247 9.00244C47.3247 10.036 46.5068 11.1794 44.8711 12.4326C44.6107 12.6361 44.3747 12.807 44.1631 12.9453L43.7236 13.2383C42.9098 13.8079 41.6729 14.4468 40.0127 15.1548C40.5254 15.4233 41.0015 15.5576 41.4409 15.5576C41.8885 15.5576 42.2873 15.5047 42.6372 15.3989C42.9953 15.2931 43.3981 15.1426 43.8457 14.9473C44.2933 14.752 44.7694 14.52 45.2739 14.2515C45.7866 13.9748 46.3034 13.6737 46.8242 13.3481C47.988 12.6239 48.9971 11.8833 49.8516 11.1265C50.2992 10.7114 50.8688 10.3818 51.5605 10.1377C51.7884 10.0645 51.9878 10.0278 52.1587 10.0278ZM38.6943 13.458L39.3657 13.1162C39.5854 13.0023 39.7808 12.8965 39.9517 12.7988C41.5955 11.8548 42.5314 11.2729 42.7593 11.0532C42.9871 10.8335 43.1011 10.6829 43.1011 10.6016C43.1011 10.512 43.0767 10.4103 43.0278 10.2964C42.979 10.1825 42.9139 10.0807 42.8325 9.99121C42.6372 9.76335 42.4297 9.64941 42.21 9.64941C41.9902 9.64941 41.7461 9.6901 41.4775 9.77148C41.2171 9.85286 40.9526 9.9668 40.6841 10.1133C40.4155 10.2516 40.1551 10.4225 39.9028 10.626C39.6587 10.8213 39.443 11.0329 39.2559 11.2607C38.8245 11.7734 38.6089 12.217 38.6089 12.5913C38.6089 12.9657 38.6374 13.2546 38.6943 13.458ZM72.9717 12.3105C72.9717 13.5068 73.346 14.105 74.0947 14.105C74.6156 14.105 75.5148 13.6493 76.7925 12.7378C77.9481 11.8833 78.6357 11.3462 78.8555 11.1265C79.36 10.7033 79.889 10.4917 80.4424 10.4917C80.6784 10.4917 80.8778 10.5731 81.0405 10.7358C81.2114 10.8905 81.2969 11.1265 81.2969 11.4438C81.2969 11.7612 81.2196 12.0501 81.0649 12.3105C80.9103 12.571 80.7109 12.8395 80.4668 13.1162C80.2308 13.3929 79.9338 13.7021 79.5757 14.0439C79.2257 14.3857 78.8229 14.7479 78.3672 15.1304C77.9115 15.5047 77.411 15.8791 76.8657 16.2534C76.3286 16.6278 75.7712 16.9655 75.1934 17.2666C73.8913 17.9339 72.7153 18.2676 71.6655 18.2676C70.4611 18.2676 69.6432 17.7223 69.2119 16.6318C68.9596 16.0052 68.8335 15.2524 68.8335 14.3735L65.2812 16.7783C62.848 18.4873 61.3994 19.3947 60.9355 19.5005C60.6995 19.5575 60.4595 19.5859 60.2153 19.5859C59.9793 19.5859 59.7555 19.5615 59.5439 19.5127C59.3324 19.472 59.1452 19.3988 58.9824 19.293C58.6081 19.0732 58.4209 18.7477 58.4209 18.3164C58.4209 18.1455 58.5348 17.7305 58.7627 17.0713L59.8125 14.1904C60.138 13.2627 60.3008 12.7052 60.3008 12.5181C60.3008 12.453 60.2601 12.4204 60.1787 12.4204C60.0973 12.4204 59.9468 12.5059 59.7271 12.6768C59.5073 12.8477 59.2428 13.0674 58.9336 13.3359L56.0283 15.875L54.5024 17.1445C52.9399 18.3896 51.6663 19.0122 50.6816 19.0122C50.2178 19.0122 49.7498 18.8047 49.2778 18.3896C48.7651 17.9502 48.5088 17.4212 48.5088 16.8027C48.5088 16.1842 48.5698 15.5088 48.6919 14.7764C48.8058 14.0439 48.9727 13.34 49.1924 12.6646C49.4121 11.981 49.6847 11.3421 50.0103 10.748C50.3358 10.1458 50.7061 9.625 51.1211 9.18555C52.0163 8.22526 53.0701 7.74512 54.2827 7.74512C55.5034 7.74512 56.1138 8.10319 56.1138 8.81934C56.1138 9.12858 55.9469 9.60059 55.6133 10.2354C54.9053 11.6351 54.5513 12.3919 54.5513 12.5059C54.5513 12.6117 54.5838 12.6971 54.6489 12.7622C54.7222 12.8192 54.7995 12.8477 54.8809 12.8477C55.0518 12.8477 55.2959 12.7093 55.6133 12.4326C57.7048 10.6016 59.019 9.46631 59.5562 9.02686C60.1014 8.5874 60.6263 8.20085 61.1309 7.86719C62.2865 7.11035 63.2061 6.73193 63.8896 6.73193C64.4512 6.73193 64.9069 6.82145 65.2568 7.00049C65.8672 7.31787 66.1724 7.67594 66.1724 8.07471C66.1724 8.47347 66.1154 8.92513 66.0015 9.42969C65.8957 9.93424 65.7777 10.4225 65.6475 10.8945L65.2812 12.1396C65.1673 12.4977 65.1104 12.7744 65.1104 12.9697C65.1104 13.1569 65.1917 13.2505 65.3545 13.2505C65.7451 13.2505 66.5223 12.6971 67.686 11.5903L68.8701 10.4795C70.2292 9.25879 71.2586 8.64844 71.9585 8.64844C72.2922 8.64844 72.5892 8.77865 72.8496 9.03906C73.3053 9.49479 73.5332 9.89355 73.5332 10.2354C73.5332 10.4225 73.4681 10.6748 73.3379 10.9922C73.0938 11.5863 72.9717 12.0257 72.9717 12.3105ZM91.7949 11.4805C91.7949 11.9199 92.1693 12.1396 92.918 12.1396C93.4714 12.1396 94.1956 11.8711 95.0908 11.334L96.0674 10.7969C96.3685 10.626 96.6289 10.5405 96.8486 10.5405C97.0765 10.5405 97.2555 10.6097 97.3857 10.748C97.516 10.8864 97.5811 11.0776 97.5811 11.3218C97.5811 11.5659 97.4997 11.8507 97.3369 12.1763C97.1742 12.4937 96.9504 12.8314 96.6655 13.1895C96.3807 13.5394 96.047 13.8893 95.6646 14.2393C95.2821 14.5811 94.8711 14.8903 94.4316 15.167C93.4551 15.7773 92.5477 16.0825 91.7095 16.0825C90.8224 16.0825 90.1144 15.932 89.5854 15.6309C89.4227 15.5332 89.264 15.4315 89.1094 15.3257C88.2386 16.3185 86.9772 17.23 85.3252 18.0601C83.5674 18.939 82.0334 19.3784 80.7231 19.3784C79.3478 19.3784 78.2614 18.8372 77.4639 17.7549C76.821 16.876 76.4995 15.9849 76.4995 15.0815C76.4995 13.7795 77.1953 12.5384 78.5869 11.3584C79.6123 10.4958 80.6011 9.84066 81.5532 9.39307C82.5135 8.94548 83.3802 8.59961 84.1533 8.35547C85.7891 7.84277 87.262 7.58643 88.5723 7.58643C89.1582 7.58643 89.679 7.70036 90.1348 7.92822C90.5986 8.14795 90.9404 8.37174 91.1602 8.59961C91.681 9.1123 91.9414 9.76742 91.9414 10.5649C91.9414 10.8009 91.917 10.984 91.8682 11.1143C91.8193 11.2445 91.7949 11.3665 91.7949 11.4805ZM81.8096 13.7876L81.7974 13.8242V13.8364C81.7974 14.1864 81.8747 14.4142 82.0293 14.52C82.4036 14.7479 82.7983 14.8089 83.2134 14.7031C83.6284 14.5892 84.0231 14.4508 84.3975 14.2881C85.3252 13.8893 86.1634 13.3848 86.9121 12.7744C86.7819 12.514 86.7168 12.2454 86.7168 11.9688C86.7168 11.3828 86.9731 10.7969 87.4858 10.2109C86.8348 10.2109 85.9559 10.5161 84.8491 11.1265C83.6284 11.8019 82.7129 12.4977 82.1025 13.2139C81.9072 13.458 81.8096 13.6493 81.8096 13.7876ZM94.7979 14.9717C94.6432 14.9717 94.4927 14.9351 94.3462 14.8618C94.1916 14.7886 94.0492 14.6706 93.9189 14.5078C93.6341 14.1497 93.4917 13.6615 93.4917 13.043C93.4917 12.3838 93.8864 11.5618 94.6758 10.5771C95.4408 9.625 96.3319 8.80306 97.3491 8.11133C98.4396 7.36263 99.3755 6.98828 100.157 6.98828C100.848 6.98828 101.316 7.18359 101.561 7.57422L101.731 7.84277C101.862 8.04622 101.992 8.14795 102.122 8.14795C102.252 8.14795 102.456 8.13574 102.732 8.11133L104.466 7.98926C104.734 7.96484 104.946 7.95264 105.101 7.95264C105.255 7.95264 105.43 8.0096 105.625 8.12354C105.829 8.22933 106.008 8.37174 106.163 8.55078C106.504 8.95768 106.675 9.40527 106.675 9.89355C106.675 10.3981 106.118 11.1916 105.003 12.2739L104.197 13.0796C103.619 13.6737 103.331 14.048 103.331 14.2026C103.331 14.3573 103.404 14.4956 103.55 14.6177C103.697 14.7316 103.855 14.7886 104.026 14.7886C104.197 14.7886 104.389 14.7438 104.6 14.6543C104.82 14.5566 105.088 14.4183 105.406 14.2393C105.723 14.0521 106.085 13.8283 106.492 13.5679C107.607 12.8354 108.352 12.3309 108.726 12.0542L109.739 11.334C110.431 10.8457 110.923 10.6016 111.216 10.6016C111.509 10.6016 111.749 10.6667 111.937 10.7969C112.124 10.9189 112.217 11.1346 112.217 11.4438C112.217 11.7531 112.059 12.1681 111.741 12.689C111.424 13.2098 111.078 13.6615 110.704 14.0439C110.337 14.4264 109.979 14.7804 109.629 15.106C109.279 15.4315 108.864 15.7855 108.384 16.168C107.912 16.5423 107.387 16.9248 106.81 17.3154C106.232 17.6979 105.621 18.0438 104.979 18.353C103.522 19.061 102.183 19.415 100.962 19.415C99.1802 19.415 98.0938 18.9552 97.7031 18.0356C97.5811 17.759 97.52 17.4497 97.52 17.1079C97.52 16.7661 97.5851 16.3999 97.7153 16.0093C97.8455 15.6105 98.0164 15.2158 98.228 14.8252C98.6512 14.0521 99.1517 13.3685 99.7295 12.7744C100.218 12.2617 100.462 11.9565 100.462 11.8589C100.462 11.7043 100.372 11.6066 100.193 11.5659C100.022 11.5252 99.7661 11.5049 99.4243 11.5049C99.2778 11.5049 98.9645 11.7165 98.4844 12.1396L97.2881 13.2383C96.0186 14.3939 95.1885 14.9717 94.7979 14.9717ZM120.591 4.88867C120.355 5.08398 120.099 5.24674 119.822 5.37695C119.546 5.49902 119.236 5.56006 118.895 5.56006C118.553 5.56006 118.223 5.50309 117.906 5.38916C117.588 5.27523 117.312 5.11654 117.076 4.91309C116.563 4.47363 116.307 3.91211 116.307 3.22852C116.307 2.17871 117.186 1.39746 118.943 0.884766C119.537 0.705729 120.026 0.616211 120.408 0.616211C120.791 0.616211 121.076 0.66097 121.263 0.750488C121.458 0.831868 121.617 0.941732 121.739 1.08008C121.983 1.35677 122.105 1.6416 122.105 1.93457C122.105 2.2194 122.068 2.47982 121.995 2.71582C121.93 2.95182 121.832 3.19596 121.702 3.44824C121.572 3.70052 121.413 3.9528 121.226 4.20508C121.039 4.45736 120.827 4.68522 120.591 4.88867ZM117.515 18.3286C116.897 18.646 116.294 18.8983 115.708 19.0854C115.123 19.2808 114.545 19.3784 113.975 19.3784C113.414 19.3784 112.828 19.2441 112.217 18.9756C111.615 18.6989 111.078 18.3327 110.606 17.877C109.556 16.8597 109.031 15.7285 109.031 14.4834C109.031 13.3359 109.373 12.1722 110.057 10.9922C110.683 9.92611 111.481 9.03092 112.449 8.30664C113.418 7.58236 114.317 7.22021 115.147 7.22021C116.335 7.22021 116.97 7.55387 117.051 8.22119C117.076 8.42464 117.088 8.66064 117.088 8.9292C117.088 9.19775 117.023 9.507 116.893 9.85693C116.771 10.1987 116.608 10.5446 116.404 10.8945C116.209 11.2363 115.989 11.5741 115.745 11.9077C115.509 12.2332 115.281 12.5303 115.062 12.7988C114.638 13.3115 114.301 13.6818 114.048 13.9097C114.048 14.1864 114.256 14.4712 114.671 14.7642C115.062 15.0409 115.391 15.1792 115.66 15.1792C115.936 15.1792 116.258 15.1141 116.624 14.9839C116.998 14.8537 117.381 14.6787 117.771 14.459C118.17 14.2393 118.573 13.987 118.98 13.7021C119.395 13.4173 119.802 13.1243 120.201 12.8232L122.435 11.0776C123.322 10.4347 124.042 10.1133 124.595 10.1133C124.815 10.1133 124.982 10.1947 125.096 10.3574C125.218 10.512 125.279 10.6951 125.279 10.9067C125.279 11.1183 125.173 11.4113 124.961 11.7856C124.75 12.1519 124.457 12.5588 124.083 13.0063C123.716 13.4539 123.285 13.9219 122.789 14.4102C122.292 14.8984 121.755 15.3786 121.177 15.8506C120.599 16.3226 119.997 16.7743 119.371 17.2056C118.752 17.6287 118.134 18.0031 117.515 18.3286ZM143.663 9.83252C143.923 9.83252 144.053 10.0522 144.053 10.4917C144.053 11.2485 143.524 12.2292 142.466 13.4336L141.771 14.1416C139.663 16.2493 137.677 17.6532 135.813 18.353C134.658 18.7843 133.828 18.764 133.323 18.292C132.908 17.8932 132.579 17.2503 132.334 16.3633L132.042 15.3013L129.441 16.9004L127.94 17.7549C126.15 18.7314 124.807 19.2197 123.912 19.2197C122.764 19.2197 121.808 18.7762 121.043 17.8892C120.311 17.0509 119.944 16.0785 119.944 14.9717C119.944 13.8812 120.38 12.9087 121.25 12.0542C122.496 10.8335 124.461 9.71452 127.146 8.69727C129.686 7.74512 131.736 7.26904 133.299 7.26904C133.828 7.26904 134.092 7.52946 134.092 8.05029C134.092 8.40837 134.023 8.67692 133.885 8.85596C133.746 9.03499 133.462 9.2181 133.03 9.40527L131.492 10.0645C129.214 11.0166 127.545 12.0054 126.487 13.0308C126.186 13.3156 126.036 13.5923 126.036 13.8608C126.036 14.1294 126.251 14.2637 126.683 14.2637C127.106 14.2637 128.09 13.8079 129.637 12.8965L130.65 12.2983C132.221 11.3543 133.535 10.8823 134.593 10.8823C135.488 10.8823 136.082 11.277 136.375 12.0664C136.448 12.278 136.517 12.4937 136.583 12.7134C136.648 12.925 136.713 13.1162 136.778 13.2871C136.924 13.6859 137.055 13.8853 137.168 13.8853C137.291 13.8853 137.461 13.8283 137.681 13.7144C137.901 13.5923 138.141 13.4417 138.401 13.2627C138.67 13.0755 138.947 12.8721 139.231 12.6523L140.708 11.4683C142.019 10.3778 143.003 9.83252 143.663 9.83252Z" fill="black"/>
</svg>
