<svg width="12" height="12" viewBox="0 0 12 12" fill="none" xmlns="http://www.w3.org/2000/svg">
<path d="M9.54119 0.0112961C9.84302 -0.029644 10.1545 0.0421216 10.4115 0.203474C10.6686 0.364826 11.6439 1.34402 11.7989 1.59158C12.0892 2.05541 12.0545 2.57559 11.7638 3.02834L3.38711 11.4114C2.43059 11.6643 1.43605 11.8468 0.461234 12C0.212356 11.948 -0.00426861 11.7134 6.38921e-05 11.4509L0.596986 8.62028L8.93656 0.271386C9.08435 0.157717 9.35778 0.0358601 9.54119 0.0112961ZM9.68464 1.08874C9.59317 1.10705 8.96737 1.73126 8.97604 1.78135L10.2479 3.02738C10.3812 2.86121 10.9699 2.42965 10.9141 2.22688C10.8703 2.06697 9.95903 1.33438 9.82232 1.11716C9.78092 1.07815 9.73759 1.07815 9.68512 1.08826L9.68464 1.08874ZM1.26226 10.7458L2.86673 10.4226L9.42613 3.85918L9.40832 3.76815L8.21689 2.57752L8.1259 2.59534L1.58576 9.14046L1.26275 10.7458H1.26226Z" fill="#202020"/>
</svg>
